<svg viewBox="0 0 400 280" xmlns="http://www.w3.org/2000/svg">
  <defs>
    <linearGradient id="g06" x1="0" y1="0" x2="1" y2="1">
      <stop offset="0" stop-color="#0078C8"/>
      <stop offset="1" stop-color="#0050A0"/>
    </linearGradient>
  </defs>
  <ellipse cx="200" cy="250" rx="150" ry="16" fill="#0050A0" opacity="0.08"/>
  <!-- clipboard -->
  <rect x="120" y="55" width="160" height="180" rx="12" fill="#fff" stroke="#0050A0" stroke-width="3"/>
  <rect x="165" y="43" width="70" height="26" rx="8" fill="url(#g06)"/>
  <!-- lignes checklist -->
  <g>
    <circle cx="150" cy="100" r="11" fill="#78B428"/>
    <path d="M145 100 l4 4 l7 -8" fill="none" stroke="#fff" stroke-width="3" stroke-linecap="round" stroke-linejoin="round"/>
    <rect x="170" y="95" width="90" height="9" rx="4" fill="#DDE3EE"/>
  </g>
  <g>
    <circle cx="150" cy="135" r="11" fill="#78B428"/>
    <path d="M145 135 l4 4 l7 -8" fill="none" stroke="#fff" stroke-width="3" stroke-linecap="round" stroke-linejoin="round"/>
    <rect x="170" y="130" width="75" height="9" rx="4" fill="#DDE3EE"/>
  </g>
  <g>
    <circle cx="150" cy="170" r="11" fill="#78B428"/>
    <path d="M145 170 l4 4 l7 -8" fill="none" stroke="#fff" stroke-width="3" stroke-linecap="round" stroke-linejoin="round"/>
    <rect x="170" y="165" width="85" height="9" rx="4" fill="#DDE3EE"/>
  </g>
  <g>
    <circle cx="150" cy="205" r="11" fill="#EBF3FD" stroke="#0050A0" stroke-width="2"/>
    <rect x="170" y="200" width="60" height="9" rx="4" fill="#DDE3EE"/>
  </g>
  <!-- loupe audit -->
  <circle cx="280" cy="190" r="30" fill="none" stroke="#F0A000" stroke-width="6"/>
  <line x1="302" y1="212" x2="320" y2="230" stroke="#F0A000" stroke-width="7" stroke-linecap="round"/>
  <!-- déco -->
  <circle cx="100" cy="80" r="8" fill="#0078C8" opacity="0.6"/>
  <circle cx="310" cy="90" r="6" fill="#78B428" opacity="0.6"/>
</svg>
