<svg viewBox="0 0 400 280" xmlns="http://www.w3.org/2000/svg">
  <defs>
    <linearGradient id="g04" x1="0" y1="0" x2="1" y2="1">
      <stop offset="0" stop-color="#0078C8"/>
      <stop offset="1" stop-color="#0050A0"/>
    </linearGradient>
  </defs>
  <ellipse cx="200" cy="250" rx="150" ry="16" fill="#0050A0" opacity="0.08"/>
  <!-- écran/dashboard -->
  <rect x="110" y="60" width="180" height="130" rx="10" fill="#fff" stroke="#0050A0" stroke-width="3"/>
  <rect x="110" y="60" width="180" height="28" rx="10" fill="url(#g04)"/>
  <circle cx="126" cy="74" r="4" fill="#fff" opacity="0.8"/>
  <circle cx="140" cy="74" r="4" fill="#fff" opacity="0.6"/>
  <!-- barres graphe -->
  <rect x="130" y="150" width="20" height="25" rx="3" fill="#0078C8"/>
  <rect x="160" y="130" width="20" height="45" rx="3" fill="#78B428"/>
  <rect x="190" y="115" width="20" height="60" rx="3" fill="#0050A0"/>
  <rect x="220" y="140" width="20" height="35" rx="3" fill="#F0A000"/>
  <!-- ligne courbe -->
  <path d="M130 120 l30 -15 l30 10 l30 -22 l30 8" fill="none" stroke="#003C8C" stroke-width="3" stroke-linecap="round" stroke-linejoin="round"/>
  <circle cx="130" cy="120" r="4" fill="#003C8C"/>
  <circle cx="250" cy="101" r="4" fill="#003C8C"/>
  <!-- loupe -->
  <circle cx="285" cy="195" r="28" fill="#EBF3FD" stroke="#0050A0" stroke-width="4"/>
  <line x1="305" y1="215" x2="320" y2="230" stroke="#0050A0" stroke-width="6" stroke-linecap="round"/>
  <!-- déco -->
  <circle cx="100" cy="210" r="8" fill="#F0A000" opacity="0.7"/>
  <circle cx="320" cy="90" r="6" fill="#78B428" opacity="0.6"/>
</svg>
