<svg viewBox="0 0 400 280" xmlns="http://www.w3.org/2000/svg">
  <defs>
    <linearGradient id="g03" x1="0" y1="0" x2="1" y2="1">
      <stop offset="0" stop-color="#0078C8"/>
      <stop offset="1" stop-color="#0050A0"/>
    </linearGradient>
  </defs>
  <ellipse cx="200" cy="250" rx="150" ry="16" fill="#0050A0" opacity="0.08"/>
  <!-- mains qui soutiennent -->
  <path d="M120 175 q-15 5 -18 25 q-1 8 8 10 l40 8" fill="url(#g03)"/>
  <path d="M280 175 q15 5 18 25 q1 8 -8 10 l-40 8" fill="url(#g03)"/>
  <!-- grand coeur -->
  <path d="M200 215 c-30 -24 -55 -40 -55 -68 a28 28 0 0 1 55 -9 a28 28 0 0 1 55 9 c0 28 -25 44 -55 68 Z" fill="#F0A000"/>
  <path d="M200 215 c-30 -24 -55 -40 -55 -68 a28 28 0 0 1 55 -9 a28 28 0 0 1 55 9 c0 28 -25 44 -55 68 Z" fill="none" stroke="#C47800" stroke-width="3"/>
  <!-- croix dans coeur -->
  <rect x="192" y="125" width="16" height="44" rx="4" fill="#fff"/>
  <rect x="178" y="139" width="44" height="16" rx="4" fill="#fff"/>
  <!-- déco -->
  <circle cx="105" cy="90" r="9" fill="#78B428" opacity="0.7"/>
  <circle cx="300" cy="100" r="7" fill="#0078C8" opacity="0.6"/>
  <circle cx="310" cy="180" r="6" fill="#F0A000" opacity="0.5"/>
  <path d="M90 150 l8 0 M94 146 l0 8" stroke="#78B428" stroke-width="3" stroke-linecap="round"/>
</svg>
