<svg viewBox="0 0 400 280" xmlns="http://www.w3.org/2000/svg">
  <defs>
    <linearGradient id="g05" x1="0" y1="0" x2="1" y2="1">
      <stop offset="0" stop-color="#0078C8"/>
      <stop offset="1" stop-color="#0050A0"/>
    </linearGradient>
  </defs>
  <ellipse cx="200" cy="250" rx="150" ry="16" fill="#0050A0" opacity="0.08"/>
  <!-- dossier arrière -->
  <path d="M120 90 h60 l12 18 h88 a8 8 0 0 1 8 8 v92 a8 8 0 0 1 -8 8 H120 a8 8 0 0 1 -8 -8 V98 a8 8 0 0 1 8 -8 Z" fill="url(#g05)"/>
  <!-- feuilles -->
  <rect x="145" y="120" width="120" height="100" rx="6" fill="#fff"/>
  <rect x="158" y="138" width="94" height="8" rx="4" fill="#DDE3EE"/>
  <rect x="158" y="156" width="70" height="8" rx="4" fill="#DDE3EE"/>
  <rect x="158" y="174" width="84" height="8" rx="4" fill="#DDE3EE"/>
  <!-- croix médicale petite -->
  <rect x="225" y="190" width="22" height="22" rx="4" fill="#78B428"/>
  <rect x="233" y="194" width="6" height="14" rx="2" fill="#fff"/>
  <rect x="229" y="198" width="14" height="6" rx="2" fill="#fff"/>
  <!-- dossier avant ouvert -->
  <path d="M112 145 h70 l10 -14 h96 l-20 88 a8 8 0 0 1 -8 6 H120 a8 8 0 0 1 -8 -8 Z" fill="#0078C8"/>
  <!-- déco -->
  <circle cx="310" cy="100" r="9" fill="#F0A000" opacity="0.7"/>
  <circle cx="95" cy="120" r="7" fill="#78B428" opacity="0.6"/>
  <circle cx="320" cy="180" r="6" fill="#0050A0" opacity="0.5"/>
</svg>
