<svg viewBox="0 0 400 280" xmlns="http://www.w3.org/2000/svg">
  <defs>
    <linearGradient id="g02" x1="0" y1="0" x2="1" y2="1">
      <stop offset="0" stop-color="#0078C8"/>
      <stop offset="1" stop-color="#0050A0"/>
    </linearGradient>
  </defs>
  <ellipse cx="200" cy="250" rx="150" ry="16" fill="#0050A0" opacity="0.08"/>
  <!-- clipboard -->
  <rect x="130" y="60" width="140" height="170" rx="12" fill="#fff" stroke="#0050A0" stroke-width="3"/>
  <rect x="170" y="48" width="60" height="26" rx="8" fill="url(#g02)"/>
  <!-- heart pulse -->
  <circle cx="200" cy="115" r="34" fill="#EBF3FD"/>
  <path d="M200 130 c-12 -10 -22 -16 -22 -27 a11 11 0 0 1 22 -4 a11 11 0 0 1 22 4 c0 11 -10 17 -22 27 Z" fill="#0050A0"/>
  <!-- lignes texte -->
  <rect x="150" y="165" width="100" height="9" rx="4" fill="#DDE3EE"/>
  <rect x="150" y="183" width="80" height="9" rx="4" fill="#DDE3EE"/>
  <rect x="150" y="201" width="90" height="9" rx="4" fill="#DDE3EE"/>
  <!-- pulse line -->
  <path d="M150 145 h18 l6 -12 l8 24 l7 -16 h22" fill="none" stroke="#78B428" stroke-width="3" stroke-linecap="round" stroke-linejoin="round"/>
  <!-- déco -->
  <circle cx="300" cy="80" r="10" fill="#F0A000" opacity="0.8"/>
  <circle cx="100" cy="130" r="7" fill="#78B428" opacity="0.6"/>
  <circle cx="290" cy="200" r="6" fill="#0078C8" opacity="0.5"/>
</svg>
