<svg viewBox="0 0 200 160" xmlns="http://www.w3.org/2000/svg">
  <defs>
    <linearGradient id="t2" x1="0" y1="0" x2="1" y2="1">
      <stop offset="0" stop-color="#0078C8"/>
      <stop offset="1" stop-color="#0050A0"/>
    </linearGradient>
  </defs>
  <rect width="200" height="160" fill="#EBF3FD" rx="14"/>
  <!-- aiguille -->
  <line x1="28" y1="80" x2="60" y2="80" stroke="#003C8C" stroke-width="4" stroke-linecap="round"/>
  <!-- embout aiguille -->
  <rect x="55" y="74" width="10" height="12" rx="3" fill="#003C8C"/>
  <!-- corps cylindrique -->
  <rect x="62" y="66" width="82" height="28" rx="10" fill="url(#t2)"/>
  <!-- liquide -->
  <rect x="66" y="70" width="44" height="20" rx="7" fill="#78B428" opacity="0.55"/>
  <!-- graduations -->
  <line x1="84" y1="66" x2="84" y2="94" stroke="rgba(255,255,255,0.35)" stroke-width="1.5"/>
  <line x1="100" y1="66" x2="100" y2="94" stroke="rgba(255,255,255,0.35)" stroke-width="1.5"/>
  <line x1="116" y1="66" x2="116" y2="94" stroke="rgba(255,255,255,0.35)" stroke-width="1.5"/>
  <!-- ailettes -->
  <rect x="56" y="57" width="14" height="10" rx="3" fill="#003C8C"/>
  <rect x="56" y="93" width="14" height="10" rx="3" fill="#003C8C"/>
  <!-- piston -->
  <rect x="142" y="62" width="16" height="36" rx="4" fill="#003C8C"/>
  <rect x="156" y="70" width="18" height="20" rx="4" fill="#0050A0"/>
  <!-- décos -->
  <circle cx="42" cy="38" r="6" fill="#F0A000" opacity="0.6"/>
  <circle cx="162" cy="130" r="5" fill="#78B428" opacity="0.5"/>
</svg>
