<svg viewBox="0 0 200 160" xmlns="http://www.w3.org/2000/svg">
  <defs>
    <linearGradient id="v3" x1="0" y1="0" x2="1" y2="1">
      <stop offset="0" stop-color="#0078C8"/>
      <stop offset="1" stop-color="#0050A0"/>
    </linearGradient>
  </defs>
  <rect width="200" height="160" fill="#EBF3FD" rx="14"/>
  <!-- mât -->
  <rect x="97" y="34" width="6" height="96" rx="3" fill="#0050A0"/>
  <!-- base -->
  <rect x="72" y="128" width="56" height="9" rx="4" fill="#003C8C"/>
  <!-- pivot central -->
  <circle cx="100" cy="52" r="9" fill="#78B428"/>
  <!-- traverse -->
  <rect x="44" y="49" width="112" height="6" rx="3" fill="#0050A0"/>
  <!-- plateau gauche -->
  <path d="M44 55 l-11 26 a22 10 0 0 0 22 0 Z" fill="url(#v3)"/>
  <line x1="44" y1="55" x2="44" y2="62" stroke="#0050A0" stroke-width="2.5" stroke-linecap="round"/>
  <!-- plateau droit -->
  <path d="M156 55 l-11 26 a22 10 0 0 0 22 0 Z" fill="url(#v3)"/>
  <line x1="156" y1="55" x2="156" y2="62" stroke="#0050A0" stroke-width="2.5" stroke-linecap="round"/>
  <!-- décos -->
  <circle cx="38" cy="105" r="5" fill="#F0A000" opacity="0.7"/>
  <circle cx="163" cy="112" r="5" fill="#78B428" opacity="0.6"/>
</svg>
