<svg xmlns="http://www.w3.org/2000/svg" viewBox="0 0 200 160">
  <rect width="200" height="160" fill="#EBF3FD" rx="12"/>
  <!-- Document avec coin replié -->
  <path d="M66 18 L112 18 L134 40 L134 120 Q134 128 126 128 L66 128 Q58 128 58 120 L58 26 Q58 18 66 18 Z" fill="#0050A0"/>
  <polygon points="112,18 134,18 134,40" fill="#003C8C"/>
  <!-- Lignes de texte simulées -->
  <rect x="70" y="52" width="46" height="5" rx="2.5" fill="#C5DFFB"/>
  <rect x="70" y="65" width="36" height="5" rx="2.5" fill="#C5DFFB" opacity="0.8"/>
  <rect x="70" y="78" width="42" height="5" rx="2.5" fill="#C5DFFB" opacity="0.8"/>
  <rect x="70" y="91" width="28" height="5" rx="2.5" fill="#C5DFFB" opacity="0.6"/>
  <!-- Badge de validation -->
  <circle cx="148" cy="120" r="26" fill="#78B428"/>
  <polyline points="136,120 143,129 161,109" fill="none" stroke="#FFFFFF" stroke-width="4" stroke-linecap="round" stroke-linejoin="round"/>
  <!-- Accent décoratif -->
  <circle cx="42" cy="26" r="6" fill="#F0A000"/>
  <circle cx="42" cy="42" r="4" fill="#78B428" opacity="0.5"/>
</svg>
