<svg xmlns="http://www.w3.org/2000/svg" viewBox="0 0 200 160">
  <rect width="200" height="160" fill="#EBF3FD" rx="12"/>
  <!-- Bouclier extérieur -->
  <path d="M100 14 L148 34 L148 78 C148 110 100 138 100 138 C100 138 52 110 52 78 L52 34 Z" fill="#003C8C"/>
  <!-- Bouclier intérieur -->
  <path d="M100 26 L136 42 L136 76 C136 100 100 122 100 122 C100 122 64 100 64 76 L64 42 Z" fill="#0050A0"/>
  <!-- Grande coche verte -->
  <polyline points="80,76 92,89 122,60" fill="none" stroke="#78B428" stroke-width="7" stroke-linecap="round" stroke-linejoin="round"/>
  <!-- Accents décoratifs -->
  <circle cx="158" cy="30" r="6" fill="#F0A000"/>
  <circle cx="166" cy="46" r="4" fill="#78B428" opacity="0.7"/>
  <circle cx="40" cy="44" r="5" fill="#F0A000" opacity="0.6"/>
  <circle cx="34" cy="60" r="3" fill="#0050A0" opacity="0.5"/>
</svg>
