<svg xmlns="http://www.w3.org/2000/svg" viewBox="0 0 200 160">
  <rect width="200" height="160" fill="#EBF3FD" rx="12"/>
  <!-- Rubans -->
  <rect x="88" y="10" width="13" height="65" rx="4" fill="#003C8C"/>
  <rect x="103" y="10" width="13" height="65" rx="4" fill="#0050A0"/>
  <!-- Médaille — disque or -->
  <circle cx="100" cy="108" r="40" fill="#F0A000"/>
  <!-- Anneau intérieur (ombre) -->
  <circle cx="100" cy="108" r="33" fill="#E08800"/>
  <!-- Étoile 5 branches (center 100,108, outer r=22, inner r=10) -->
  <polygon points="100,86 106,100 121,101 110,111 113,126 100,118 87,126 90,111 79,101 94,100" fill="#003C8C"/>
  <!-- Traits de reflet autour de la médaille -->
  <line x1="100" y1="62" x2="100" y2="55" stroke="#F0A000" stroke-width="2.5" stroke-linecap="round"/>
  <line x1="122" y1="70" x2="127" y2="63" stroke="#F0A000" stroke-width="2.5" stroke-linecap="round"/>
  <line x1="78" y1="70" x2="73" y2="63" stroke="#F0A000" stroke-width="2.5" stroke-linecap="round"/>
  <line x1="136" y1="90" x2="142" y2="86" stroke="#F0A000" stroke-width="2" stroke-linecap="round"/>
  <line x1="64" y1="90" x2="58" y2="86" stroke="#F0A000" stroke-width="2" stroke-linecap="round"/>
  <!-- Accents verts -->
  <circle cx="62" cy="28" r="4" fill="#78B428" opacity="0.7"/>
  <circle cx="138" cy="28" r="4" fill="#78B428" opacity="0.7"/>
  <circle cx="156" cy="108" r="5" fill="#78B428" opacity="0.5"/>
  <circle cx="44" cy="108" r="5" fill="#78B428" opacity="0.5"/>
</svg>
