<svg viewBox="0 0 200 160" xmlns="http://www.w3.org/2000/svg">
  <defs>
    <linearGradient id="w5" x1="0" y1="0" x2="1" y2="1">
      <stop offset="0" stop-color="#0078C8"/>
      <stop offset="1" stop-color="#0050A0"/>
    </linearGradient>
  </defs>
  <!-- personne gauche -->
  <circle cx="65" cy="60" r="18" fill="url(#w5)"/>
  <path d="M37 125 c0 -18 12 -30 28 -30 s28 12 28 30 Z" fill="url(#w5)"/>
  <!-- personne droite -->
  <circle cx="135" cy="60" r="18" fill="#78B428"/>
  <path d="M107 125 c0 -18 12 -30 28 -30 s28 12 28 30 Z" fill="#78B428"/>
  <!-- coeur central -->
  <path d="M100 78 c-7 -6 -13 -9 -13 -16 a6.5 6.5 0 0 1 13 -2 a6.5 6.5 0 0 1 13 2 c0 7 -6 10 -13 16 Z" fill="#F0A000"/>
  <!-- déco -->
  <circle cx="35" cy="45" r="5" fill="#F0A000" opacity="0.7"/>
  <circle cx="165" cy="50" r="5" fill="#0078C8" opacity="0.6"/>
</svg>
