<svg viewBox="0 0 200 160" xmlns="http://www.w3.org/2000/svg">
  <defs>
    <linearGradient id="w4" x1="0" y1="0" x2="1" y2="1">
      <stop offset="0" stop-color="#0078C8"/>
      <stop offset="1" stop-color="#0050A0"/>
    </linearGradient>
  </defs>
  <!-- grand engrenage -->
  <g transform="translate(85,80)">
    <path d="M0 -42 l9 0 l3 -11 l11 3 l-2 11 l8 5 l9 -7 l8 8 l-7 9 l5 8 l11 -2 l3 11 l-11 3 l0 9 l11 3 l-3 11 l-11 -2 l-5 8 l7 9 l-8 8 l-9 -7 l-8 5 l2 11 l-11 3 l-3 -11 l-9 0 l-3 11 l-11 -3 l2 -11 l-8 -5 l-9 7 l-8 -8 l7 -9 l-5 -8 l-11 2 l-3 -11 l11 -3 l0 -9 l-11 -3 l3 -11 l11 2 l5 -8 l-7 -9 l8 -8 l9 7 l8 -5 l-2 -11 l11 -3 Z" fill="url(#w4)"/>
    <circle cx="0" cy="0" r="18" fill="#DDE3EE"/>
    <circle cx="0" cy="0" r="9" fill="#78B428"/>
  </g>
  <!-- petit engrenage -->
  <g transform="translate(145,115)">
    <path d="M0 -22 l5 0 l2 -6 l6 2 l-1 6 l4 3 l5 -4 l4 4 l-4 5 l3 4 l6 -1 l2 6 l-6 2 l0 5 l6 2 l-2 6 l-6 -1 l-3 4 l4 5 l-4 4 l-5 -4 l-4 3 l1 6 l-6 2 l-2 -6 l-5 0 l-2 6 l-6 -2 l1 -6 l-4 -3 l-5 4 l-4 -4 l4 -5 l-3 -4 l-6 1 l-2 -6 l6 -2 l0 -5 l-6 -2 l2 -6 l6 1 l3 -4 l-4 -5 l4 -4 l5 4 l4 -3 l-1 -6 Z" fill="#F0A000"/>
    <circle cx="0" cy="0" r="8" fill="#DDE3EE"/>
  </g>
  <!-- déco -->
  <circle cx="35" cy="50" r="6" fill="#78B428" opacity="0.6"/>
  <circle cx="40" cy="120" r="5" fill="#0078C8" opacity="0.5"/>
</svg>
