<svg xmlns="http://www.w3.org/2000/svg" style="display:none">

  <!-- 01 Prévention primaire : shield + loupe -->
  <symbol id="icon-prevention-primaire" viewBox="0 0 48 48" fill="none">
    <path d="M24 4L8 10v12c0 10 6.8 19.4 16 22 9.2-2.6 16-12 16-22V10L24 4z" stroke="currentColor" stroke-width="2.5" stroke-linejoin="round"/>
    <circle cx="22" cy="22" r="6" stroke="currentColor" stroke-width="2.5"/>
    <line x1="26.2" y1="26.2" x2="32" y2="32" stroke="currentColor" stroke-width="2.5" stroke-linecap="round"/>
    <path d="M18 22h8M22 18v8" stroke="currentColor" stroke-width="2" stroke-linecap="round"/>
  </symbol>

  <!-- 02 Prévention secondaire : stéthoscope -->
  <symbol id="icon-prevention-secondaire" viewBox="0 0 48 48" fill="none">
    <path d="M12 8v14a12 12 0 0024 0V8" stroke="currentColor" stroke-width="2.5" stroke-linecap="round"/>
    <path d="M12 8h4M24 8h4" stroke="currentColor" stroke-width="2.5" stroke-linecap="round"/>
    <path d="M36 22v6a8 8 0 01-8 8h-2" stroke="currentColor" stroke-width="2.5" stroke-linecap="round"/>
    <circle cx="26" cy="38" r="4" stroke="currentColor" stroke-width="2.5"/>
    <circle cx="26" cy="38" r="1.5" fill="currentColor"/>
    <circle cx="12" cy="8" r="2.5" fill="currentColor"/>
    <circle cx="28" cy="8" r="2.5" fill="currentColor"/>
  </symbol>

  <!-- 03 Prévention tertiaire : cœur + main -->
  <symbol id="icon-prevention-tertiaire" viewBox="0 0 48 48" fill="none">
    <path d="M24 38s-16-10-16-20a8 8 0 0116-2.8A8 8 0 0140 18c0 10-16 20-16 20z" stroke="currentColor" stroke-width="2.5" stroke-linejoin="round"/>
    <path d="M18 24h12M24 18v12" stroke="currentColor" stroke-width="2" stroke-linecap="round"/>
  </symbol>

  <!-- 04 Recherche SST : microscope -->
  <symbol id="icon-recherche" viewBox="0 0 48 48" fill="none">
    <rect x="20" y="6" width="8" height="18" rx="2" stroke="currentColor" stroke-width="2.5"/>
    <path d="M16 24h16" stroke="currentColor" stroke-width="2.5" stroke-linecap="round"/>
    <path d="M24 24v8" stroke="currentColor" stroke-width="2.5" stroke-linecap="round"/>
    <path d="M14 40h20" stroke="currentColor" stroke-width="2.5" stroke-linecap="round"/>
    <path d="M18 32c0 4 12 4 12 0" stroke="currentColor" stroke-width="2" stroke-linecap="round"/>
    <circle cx="24" cy="13" r="3" stroke="currentColor" stroke-width="2"/>
    <path d="M28 8l6-4M28 14l8 2" stroke="currentColor" stroke-width="2" stroke-linecap="round"/>
  </symbol>

  <!-- 05 Support administratif : dossier médical -->
  <symbol id="icon-support" viewBox="0 0 48 48" fill="none">
    <rect x="8" y="12" width="32" height="30" rx="3" stroke="currentColor" stroke-width="2.5"/>
    <path d="M16 12V9a2 2 0 012-2h12a2 2 0 012 2v3" stroke="currentColor" stroke-width="2.5"/>
    <path d="M16 22h16M16 28h10M16 34h12" stroke="currentColor" stroke-width="2" stroke-linecap="round"/>
    <path d="M30 28h4v6h-4z" stroke="currentColor" stroke-width="2" stroke-linejoin="round"/>
  </symbol>

  <!-- 06 Audit SST : checklist + loupe -->
  <symbol id="icon-audit" viewBox="0 0 48 48" fill="none">
    <rect x="8" y="6" width="24" height="32" rx="3" stroke="currentColor" stroke-width="2.5"/>
    <path d="M14 14h12M14 20h12M14 26h8" stroke="currentColor" stroke-width="2" stroke-linecap="round"/>
    <circle cx="34" cy="34" r="8" stroke="currentColor" stroke-width="2.5"/>
    <path d="M39.5 39.5l4 4" stroke="currentColor" stroke-width="2.5" stroke-linecap="round"/>
    <path d="M31 34l2 2 4-4" stroke="currentColor" stroke-width="2" stroke-linecap="round" stroke-linejoin="round"/>
  </symbol>

  <!-- why-section icons -->

  <!-- Conformité réglementaire : balance -->
  <symbol id="icon-conformite" viewBox="0 0 48 48" fill="none">
    <path d="M24 6v36M12 42h24" stroke="currentColor" stroke-width="2.5" stroke-linecap="round"/>
    <path d="M24 10l-14 6 14 10 14-10-14-6z" stroke="currentColor" stroke-width="2" stroke-linejoin="round"/>
    <path d="M10 16l-4 10c0 4 4 6 4 6s4-2 4-6l-4-10z" stroke="currentColor" stroke-width="2" stroke-linejoin="round"/>
    <path d="M38 16l-4 10c0 4 4 6 4 6s4-2 4-6l-4-10z" stroke="currentColor" stroke-width="2" stroke-linejoin="round"/>
  </symbol>

  <!-- Réduction des risques : bouclier check -->
  <symbol id="icon-risques" viewBox="0 0 48 48" fill="none">
    <path d="M24 4L8 10v12c0 10 6.8 19.4 16 22 9.2-2.6 16-12 16-22V10L24 4z" stroke="currentColor" stroke-width="2.5" stroke-linejoin="round"/>
    <path d="M16 24l6 6 10-10" stroke="currentColor" stroke-width="2.5" stroke-linecap="round" stroke-linejoin="round"/>
  </symbol>

  <!-- Productivité : graphe montant -->
  <symbol id="icon-productivite" viewBox="0 0 48 48" fill="none">
    <path d="M8 38h32M8 38V10" stroke="currentColor" stroke-width="2.5" stroke-linecap="round"/>
    <path d="M12 32l8-10 8 4 12-14" stroke="currentColor" stroke-width="2.5" stroke-linecap="round" stroke-linejoin="round"/>
    <circle cx="20" cy="22" r="2.5" fill="currentColor"/>
    <circle cx="28" cy="26" r="2.5" fill="currentColor"/>
    <circle cx="40" cy="12" r="2.5" fill="currentColor"/>
  </symbol>

  <!-- Gestion optimisée : engrenage + check -->
  <symbol id="icon-gestion" viewBox="0 0 48 48" fill="none">
    <circle cx="24" cy="24" r="6" stroke="currentColor" stroke-width="2.5"/>
    <path d="M24 6v4M24 38v4M6 24h4M38 24h4M10.1 10.1l2.8 2.8M35.1 35.1l2.8 2.8M10.1 37.9l2.8-2.8M35.1 12.9l2.8-2.8" stroke="currentColor" stroke-width="2.5" stroke-linecap="round"/>
  </symbol>

  <!-- Climat social : personnes -->
  <symbol id="icon-social" viewBox="0 0 48 48" fill="none">
    <circle cx="16" cy="16" r="6" stroke="currentColor" stroke-width="2.5"/>
    <circle cx="32" cy="16" r="6" stroke="currentColor" stroke-width="2.5"/>
    <path d="M4 38c0-7 5.4-12 12-12s12 5 12 12" stroke="currentColor" stroke-width="2.5" stroke-linecap="round"/>
    <path d="M32 26c4 0 12 3 12 12" stroke="currentColor" stroke-width="2.5" stroke-linecap="round"/>
  </symbol>

  <!-- Image valorisée : étoile/trophée -->
  <symbol id="icon-image" viewBox="0 0 48 48" fill="none">
    <path d="M24 6l4.5 9 10 1.5-7.2 7 1.7 10L24 29l-9 4.5 1.7-10L9.5 16.5l10-1.5L24 6z" stroke="currentColor" stroke-width="2.5" stroke-linejoin="round"/>
    <path d="M16 42h16M24 34v8" stroke="currentColor" stroke-width="2.5" stroke-linecap="round"/>
  </symbol>

</svg>
